<?xml version="1.0" encoding="UTF-8" standalone="no"?> <svg width="512" height="512" viewBox="0 0 512 512" fill="none" xmlns="http://www.w3.org/2000/svg">
<path fill-rule="evenodd" clip-rule="evenodd" d="M128 32C74.9807 32 32 74.9807 32 128V384C32 437.019 74.9807 480 128 480H384C437.019 480 480 437.019 480 384V128C480 74.9807 437.019 32 384 32H128ZM200 108C180.118 108 164 124.118 164 144V384C164 395.046 172.954 404 184 404C195.046 404 204 395.046 204 384V276H261.479L343.519 395.331C349.777 404.433 362.228 406.739 371.331 400.481C380.433 394.223 382.739 381.772 376.481 372.669L309.301 274.953C349.372 268.578 380 233.866 380 192C380 145.608 342.392 108 296 108H200ZM296 236H204V148H296C320.301 148 340 167.699 340 192C340 216.301 320.301 236 296 236Z" fill="black"/>
</svg>
